# Torus, R=1.00 r=0.42, 32x16 quads, with vertex normals.
# Generated; faces are quads on purpose, to exercise fan-triangulation.
v 1.420000 0.000000 0.000000
v 1.388029 0.160727 0.000000
v 1.296985 0.296985 0.000000
v 1.160727 0.388029 0.000000
v 1.000000 0.420000 0.000000
v 0.839273 0.388029 0.000000
v 0.703015 0.296985 0.000000
v 0.611971 0.160727 0.000000
v 0.580000 0.000000 0.000000
v 0.611971 -0.160727 0.000000
v 0.703015 -0.296985 0.000000
v 0.839273 -0.388029 0.000000
v 1.000000 -0.420000 0.000000
v 1.160727 -0.388029 0.000000
v 1.296985 -0.296985 0.000000
v 1.388029 -0.160727 0.000000
v 1.392715 0.000000 0.277028
v 1.361359 0.160727 0.270791
v 1.272064 0.296985 0.253029
v 1.138424 0.388029 0.226447
v 0.980785 0.420000 0.195090
v 0.823147 0.388029 0.163734
v 0.689507 0.296985 0.137151
v 0.600212 0.160727 0.119390
v 0.568855 0.000000 0.113152
v 0.600212 -0.160727 0.119390
v 0.689507 -0.296985 0.137151
v 0.823147 -0.388029 0.163734
v 0.980785 -0.420000 0.195090
v 1.138424 -0.388029 0.226447
v 1.272064 -0.296985 0.253029
v 1.361359 -0.160727 0.270791
v 1.311909 0.000000 0.543410
v 1.282372 0.160727 0.531176
v 1.198258 0.296985 0.496335
v 1.072372 0.388029 0.444191
v 0.923880 0.420000 0.382683
v 0.775387 0.388029 0.321176
v 0.649501 0.296985 0.269032
v 0.565387 0.160727 0.234191
v 0.535850 0.000000 0.221956
v 0.565387 -0.160727 0.234191
v 0.649501 -0.296985 0.269032
v 0.775387 -0.388029 0.321176
v 0.923880 -0.420000 0.382683
v 1.072372 -0.388029 0.444191
v 1.198258 -0.296985 0.496335
v 1.282372 -0.160727 0.531176
v 1.180687 0.000000 0.788910
v 1.154104 0.160727 0.771148
v 1.078403 0.296985 0.720566
v 0.965109 0.388029 0.644865
v 0.831470 0.420000 0.555570
v 0.697830 0.388029 0.466275
v 0.584536 0.296985 0.390574
v 0.508835 0.160727 0.339993
v 0.482252 0.000000 0.322231
v 0.508835 -0.160727 0.339993
v 0.584536 -0.296985 0.390574
v 0.697830 -0.388029 0.466275
v 0.831470 -0.420000 0.555570
v 0.965109 -0.388029 0.644865
v 1.078403 -0.296985 0.720566
v 1.154104 -0.160727 0.771148
v 1.004092 0.000000 1.004092
v 0.981485 0.160727 0.981485
v 0.917107 0.296985 0.917107
v 0.820758 0.388029 0.820758
v 0.707107 0.420000 0.707107
v 0.593456 0.388029 0.593456
v 0.497107 0.296985 0.497107
v 0.432729 0.160727 0.432729
v 0.410122 0.000000 0.410122
v 0.432729 -0.160727 0.432729
v 0.497107 -0.296985 0.497107
v 0.593456 -0.388029 0.593456
v 0.707107 -0.420000 0.707107
v 0.820758 -0.388029 0.820758
v 0.917107 -0.296985 0.917107
v 0.981485 -0.160727 0.981485
v 0.788910 0.000000 1.180687
v 0.771148 0.160727 1.154104
v 0.720566 0.296985 1.078403
v 0.644865 0.388029 0.965109
v 0.555570 0.420000 0.831470
v 0.466275 0.388029 0.697830
v 0.390574 0.296985 0.584536
v 0.339993 0.160727 0.508835
v 0.322231 0.000000 0.482252
v 0.339993 -0.160727 0.508835
v 0.390574 -0.296985 0.584536
v 0.466275 -0.388029 0.697830
v 0.555570 -0.420000 0.831470
v 0.644865 -0.388029 0.965109
v 0.720566 -0.296985 1.078403
v 0.771148 -0.160727 1.154104
v 0.543410 0.000000 1.311909
v 0.531176 0.160727 1.282372
v 0.496335 0.296985 1.198258
v 0.444191 0.388029 1.072372
v 0.382683 0.420000 0.923880
v 0.321176 0.388029 0.775387
v 0.269032 0.296985 0.649501
v 0.234191 0.160727 0.565387
v 0.221956 0.000000 0.535850
v 0.234191 -0.160727 0.565387
v 0.269032 -0.296985 0.649501
v 0.321176 -0.388029 0.775387
v 0.382683 -0.420000 0.923880
v 0.444191 -0.388029 1.072372
v 0.496335 -0.296985 1.198258
v 0.531176 -0.160727 1.282372
v 0.277028 0.000000 1.392715
v 0.270791 0.160727 1.361359
v 0.253029 0.296985 1.272064
v 0.226447 0.388029 1.138424
v 0.195090 0.420000 0.980785
v 0.163734 0.388029 0.823147
v 0.137151 0.296985 0.689507
v 0.119390 0.160727 0.600212
v 0.113152 0.000000 0.568855
v 0.119390 -0.160727 0.600212
v 0.137151 -0.296985 0.689507
v 0.163734 -0.388029 0.823147
v 0.195090 -0.420000 0.980785
v 0.226447 -0.388029 1.138424
v 0.253029 -0.296985 1.272064
v 0.270791 -0.160727 1.361359
v 0.000000 0.000000 1.420000
v 0.000000 0.160727 1.388029
v 0.000000 0.296985 1.296985
v 0.000000 0.388029 1.160727
v 0.000000 0.420000 1.000000
v 0.000000 0.388029 0.839273
v 0.000000 0.296985 0.703015
v 0.000000 0.160727 0.611971
v 0.000000 0.000000 0.580000
v 0.000000 -0.160727 0.611971
v 0.000000 -0.296985 0.703015
v 0.000000 -0.388029 0.839273
v 0.000000 -0.420000 1.000000
v 0.000000 -0.388029 1.160727
v 0.000000 -0.296985 1.296985
v 0.000000 -0.160727 1.388029
v -0.277028 0.000000 1.392715
v -0.270791 0.160727 1.361359
v -0.253029 0.296985 1.272064
v -0.226447 0.388029 1.138424
v -0.195090 0.420000 0.980785
v -0.163734 0.388029 0.823147
v -0.137151 0.296985 0.689507
v -0.119390 0.160727 0.600212
v -0.113152 0.000000 0.568855
v -0.119390 -0.160727 0.600212
v -0.137151 -0.296985 0.689507
v -0.163734 -0.388029 0.823147
v -0.195090 -0.420000 0.980785
v -0.226447 -0.388029 1.138424
v -0.253029 -0.296985 1.272064
v -0.270791 -0.160727 1.361359
v -0.543410 0.000000 1.311909
v -0.531176 0.160727 1.282372
v -0.496335 0.296985 1.198258
v -0.444191 0.388029 1.072372
v -0.382683 0.420000 0.923880
v -0.321176 0.388029 0.775387
v -0.269032 0.296985 0.649501
v -0.234191 0.160727 0.565387
v -0.221956 0.000000 0.535850
v -0.234191 -0.160727 0.565387
v -0.269032 -0.296985 0.649501
v -0.321176 -0.388029 0.775387
v -0.382683 -0.420000 0.923880
v -0.444191 -0.388029 1.072372
v -0.496335 -0.296985 1.198258
v -0.531176 -0.160727 1.282372
v -0.788910 0.000000 1.180687
v -0.771148 0.160727 1.154104
v -0.720566 0.296985 1.078403
v -0.644865 0.388029 0.965109
v -0.555570 0.420000 0.831470
v -0.466275 0.388029 0.697830
v -0.390574 0.296985 0.584536
v -0.339993 0.160727 0.508835
v -0.322231 0.000000 0.482252
v -0.339993 -0.160727 0.508835
v -0.390574 -0.296985 0.584536
v -0.466275 -0.388029 0.697830
v -0.555570 -0.420000 0.831470
v -0.644865 -0.388029 0.965109
v -0.720566 -0.296985 1.078403
v -0.771148 -0.160727 1.154104
v -1.004092 0.000000 1.004092
v -0.981485 0.160727 0.981485
v -0.917107 0.296985 0.917107
v -0.820758 0.388029 0.820758
v -0.707107 0.420000 0.707107
v -0.593456 0.388029 0.593456
v -0.497107 0.296985 0.497107
v -0.432729 0.160727 0.432729
v -0.410122 0.000000 0.410122
v -0.432729 -0.160727 0.432729
v -0.497107 -0.296985 0.497107
v -0.593456 -0.388029 0.593456
v -0.707107 -0.420000 0.707107
v -0.820758 -0.388029 0.820758
v -0.917107 -0.296985 0.917107
v -0.981485 -0.160727 0.981485
v -1.180687 0.000000 0.788910
v -1.154104 0.160727 0.771148
v -1.078403 0.296985 0.720566
v -0.965109 0.388029 0.644865
v -0.831470 0.420000 0.555570
v -0.697830 0.388029 0.466275
v -0.584536 0.296985 0.390574
v -0.508835 0.160727 0.339993
v -0.482252 0.000000 0.322231
v -0.508835 -0.160727 0.339993
v -0.584536 -0.296985 0.390574
v -0.697830 -0.388029 0.466275
v -0.831470 -0.420000 0.555570
v -0.965109 -0.388029 0.644865
v -1.078403 -0.296985 0.720566
v -1.154104 -0.160727 0.771148
v -1.311909 0.000000 0.543410
v -1.282372 0.160727 0.531176
v -1.198258 0.296985 0.496335
v -1.072372 0.388029 0.444191
v -0.923880 0.420000 0.382683
v -0.775387 0.388029 0.321176
v -0.649501 0.296985 0.269032
v -0.565387 0.160727 0.234191
v -0.535850 0.000000 0.221956
v -0.565387 -0.160727 0.234191
v -0.649501 -0.296985 0.269032
v -0.775387 -0.388029 0.321176
v -0.923880 -0.420000 0.382683
v -1.072372 -0.388029 0.444191
v -1.198258 -0.296985 0.496335
v -1.282372 -0.160727 0.531176
v -1.392715 0.000000 0.277028
v -1.361359 0.160727 0.270791
v -1.272064 0.296985 0.253029
v -1.138424 0.388029 0.226447
v -0.980785 0.420000 0.195090
v -0.823147 0.388029 0.163734
v -0.689507 0.296985 0.137151
v -0.600212 0.160727 0.119390
v -0.568855 0.000000 0.113152
v -0.600212 -0.160727 0.119390
v -0.689507 -0.296985 0.137151
v -0.823147 -0.388029 0.163734
v -0.980785 -0.420000 0.195090
v -1.138424 -0.388029 0.226447
v -1.272064 -0.296985 0.253029
v -1.361359 -0.160727 0.270791
v -1.420000 0.000000 0.000000
v -1.388029 0.160727 0.000000
v -1.296985 0.296985 0.000000
v -1.160727 0.388029 0.000000
v -1.000000 0.420000 0.000000
v -0.839273 0.388029 0.000000
v -0.703015 0.296985 0.000000
v -0.611971 0.160727 0.000000
v -0.580000 0.000000 0.000000
v -0.611971 -0.160727 0.000000
v -0.703015 -0.296985 0.000000
v -0.839273 -0.388029 0.000000
v -1.000000 -0.420000 0.000000
v -1.160727 -0.388029 0.000000
v -1.296985 -0.296985 0.000000
v -1.388029 -0.160727 0.000000
v -1.392715 0.000000 -0.277028
v -1.361359 0.160727 -0.270791
v -1.272064 0.296985 -0.253029
v -1.138424 0.388029 -0.226447
v -0.980785 0.420000 -0.195090
v -0.823147 0.388029 -0.163734
v -0.689507 0.296985 -0.137151
v -0.600212 0.160727 -0.119390
v -0.568855 0.000000 -0.113152
v -0.600212 -0.160727 -0.119390
v -0.689507 -0.296985 -0.137151
v -0.823147 -0.388029 -0.163734
v -0.980785 -0.420000 -0.195090
v -1.138424 -0.388029 -0.226447
v -1.272064 -0.296985 -0.253029
v -1.361359 -0.160727 -0.270791
v -1.311909 0.000000 -0.543410
v -1.282372 0.160727 -0.531176
v -1.198258 0.296985 -0.496335
v -1.072372 0.388029 -0.444191
v -0.923880 0.420000 -0.382683
v -0.775387 0.388029 -0.321176
v -0.649501 0.296985 -0.269032
v -0.565387 0.160727 -0.234191
v -0.535850 0.000000 -0.221956
v -0.565387 -0.160727 -0.234191
v -0.649501 -0.296985 -0.269032
v -0.775387 -0.388029 -0.321176
v -0.923880 -0.420000 -0.382683
v -1.072372 -0.388029 -0.444191
v -1.198258 -0.296985 -0.496335
v -1.282372 -0.160727 -0.531176
v -1.180687 0.000000 -0.788910
v -1.154104 0.160727 -0.771148
v -1.078403 0.296985 -0.720566
v -0.965109 0.388029 -0.644865
v -0.831470 0.420000 -0.555570
v -0.697830 0.388029 -0.466275
v -0.584536 0.296985 -0.390574
v -0.508835 0.160727 -0.339993
v -0.482252 0.000000 -0.322231
v -0.508835 -0.160727 -0.339993
v -0.584536 -0.296985 -0.390574
v -0.697830 -0.388029 -0.466275
v -0.831470 -0.420000 -0.555570
v -0.965109 -0.388029 -0.644865
v -1.078403 -0.296985 -0.720566
v -1.154104 -0.160727 -0.771148
v -1.004092 0.000000 -1.004092
v -0.981485 0.160727 -0.981485
v -0.917107 0.296985 -0.917107
v -0.820758 0.388029 -0.820758
v -0.707107 0.420000 -0.707107
v -0.593456 0.388029 -0.593456
v -0.497107 0.296985 -0.497107
v -0.432729 0.160727 -0.432729
v -0.410122 0.000000 -0.410122
v -0.432729 -0.160727 -0.432729
v -0.497107 -0.296985 -0.497107
v -0.593456 -0.388029 -0.593456
v -0.707107 -0.420000 -0.707107
v -0.820758 -0.388029 -0.820758
v -0.917107 -0.296985 -0.917107
v -0.981485 -0.160727 -0.981485
v -0.788910 0.000000 -1.180687
v -0.771148 0.160727 -1.154104
v -0.720566 0.296985 -1.078403
v -0.644865 0.388029 -0.965109
v -0.555570 0.420000 -0.831470
v -0.466275 0.388029 -0.697830
v -0.390574 0.296985 -0.584536
v -0.339993 0.160727 -0.508835
v -0.322231 0.000000 -0.482252
v -0.339993 -0.160727 -0.508835
v -0.390574 -0.296985 -0.584536
v -0.466275 -0.388029 -0.697830
v -0.555570 -0.420000 -0.831470
v -0.644865 -0.388029 -0.965109
v -0.720566 -0.296985 -1.078403
v -0.771148 -0.160727 -1.154104
v -0.543410 0.000000 -1.311909
v -0.531176 0.160727 -1.282372
v -0.496335 0.296985 -1.198258
v -0.444191 0.388029 -1.072372
v -0.382683 0.420000 -0.923880
v -0.321176 0.388029 -0.775387
v -0.269032 0.296985 -0.649501
v -0.234191 0.160727 -0.565387
v -0.221956 0.000000 -0.535850
v -0.234191 -0.160727 -0.565387
v -0.269032 -0.296985 -0.649501
v -0.321176 -0.388029 -0.775387
v -0.382683 -0.420000 -0.923880
v -0.444191 -0.388029 -1.072372
v -0.496335 -0.296985 -1.198258
v -0.531176 -0.160727 -1.282372
v -0.277028 0.000000 -1.392715
v -0.270791 0.160727 -1.361359
v -0.253029 0.296985 -1.272064
v -0.226447 0.388029 -1.138424
v -0.195090 0.420000 -0.980785
v -0.163734 0.388029 -0.823147
v -0.137151 0.296985 -0.689507
v -0.119390 0.160727 -0.600212
v -0.113152 0.000000 -0.568855
v -0.119390 -0.160727 -0.600212
v -0.137151 -0.296985 -0.689507
v -0.163734 -0.388029 -0.823147
v -0.195090 -0.420000 -0.980785
v -0.226447 -0.388029 -1.138424
v -0.253029 -0.296985 -1.272064
v -0.270791 -0.160727 -1.361359
v -0.000000 0.000000 -1.420000
v -0.000000 0.160727 -1.388029
v -0.000000 0.296985 -1.296985
v -0.000000 0.388029 -1.160727
v -0.000000 0.420000 -1.000000
v -0.000000 0.388029 -0.839273
v -0.000000 0.296985 -0.703015
v -0.000000 0.160727 -0.611971
v -0.000000 0.000000 -0.580000
v -0.000000 -0.160727 -0.611971
v -0.000000 -0.296985 -0.703015
v -0.000000 -0.388029 -0.839273
v -0.000000 -0.420000 -1.000000
v -0.000000 -0.388029 -1.160727
v -0.000000 -0.296985 -1.296985
v -0.000000 -0.160727 -1.388029
v 0.277028 0.000000 -1.392715
v 0.270791 0.160727 -1.361359
v 0.253029 0.296985 -1.272064
v 0.226447 0.388029 -1.138424
v 0.195090 0.420000 -0.980785
v 0.163734 0.388029 -0.823147
v 0.137151 0.296985 -0.689507
v 0.119390 0.160727 -0.600212
v 0.113152 0.000000 -0.568855
v 0.119390 -0.160727 -0.600212
v 0.137151 -0.296985 -0.689507
v 0.163734 -0.388029 -0.823147
v 0.195090 -0.420000 -0.980785
v 0.226447 -0.388029 -1.138424
v 0.253029 -0.296985 -1.272064
v 0.270791 -0.160727 -1.361359
v 0.543410 0.000000 -1.311909
v 0.531176 0.160727 -1.282372
v 0.496335 0.296985 -1.198258
v 0.444191 0.388029 -1.072372
v 0.382683 0.420000 -0.923880
v 0.321176 0.388029 -0.775387
v 0.269032 0.296985 -0.649501
v 0.234191 0.160727 -0.565387
v 0.221956 0.000000 -0.535850
v 0.234191 -0.160727 -0.565387
v 0.269032 -0.296985 -0.649501
v 0.321176 -0.388029 -0.775387
v 0.382683 -0.420000 -0.923880
v 0.444191 -0.388029 -1.072372
v 0.496335 -0.296985 -1.198258
v 0.531176 -0.160727 -1.282372
v 0.788910 0.000000 -1.180687
v 0.771148 0.160727 -1.154104
v 0.720566 0.296985 -1.078403
v 0.644865 0.388029 -0.965109
v 0.555570 0.420000 -0.831470
v 0.466275 0.388029 -0.697830
v 0.390574 0.296985 -0.584536
v 0.339993 0.160727 -0.508835
v 0.322231 0.000000 -0.482252
v 0.339993 -0.160727 -0.508835
v 0.390574 -0.296985 -0.584536
v 0.466275 -0.388029 -0.697830
v 0.555570 -0.420000 -0.831470
v 0.644865 -0.388029 -0.965109
v 0.720566 -0.296985 -1.078403
v 0.771148 -0.160727 -1.154104
v 1.004092 0.000000 -1.004092
v 0.981485 0.160727 -0.981485
v 0.917107 0.296985 -0.917107
v 0.820758 0.388029 -0.820758
v 0.707107 0.420000 -0.707107
v 0.593456 0.388029 -0.593456
v 0.497107 0.296985 -0.497107
v 0.432729 0.160727 -0.432729
v 0.410122 0.000000 -0.410122
v 0.432729 -0.160727 -0.432729
v 0.497107 -0.296985 -0.497107
v 0.593456 -0.388029 -0.593456
v 0.707107 -0.420000 -0.707107
v 0.820758 -0.388029 -0.820758
v 0.917107 -0.296985 -0.917107
v 0.981485 -0.160727 -0.981485
v 1.180687 0.000000 -0.788910
v 1.154104 0.160727 -0.771148
v 1.078403 0.296985 -0.720566
v 0.965109 0.388029 -0.644865
v 0.831470 0.420000 -0.555570
v 0.697830 0.388029 -0.466275
v 0.584536 0.296985 -0.390574
v 0.508835 0.160727 -0.339993
v 0.482252 0.000000 -0.322231
v 0.508835 -0.160727 -0.339993
v 0.584536 -0.296985 -0.390574
v 0.697830 -0.388029 -0.466275
v 0.831470 -0.420000 -0.555570
v 0.965109 -0.388029 -0.644865
v 1.078403 -0.296985 -0.720566
v 1.154104 -0.160727 -0.771148
v 1.311909 0.000000 -0.543410
v 1.282372 0.160727 -0.531176
v 1.198258 0.296985 -0.496335
v 1.072372 0.388029 -0.444191
v 0.923880 0.420000 -0.382683
v 0.775387 0.388029 -0.321176
v 0.649501 0.296985 -0.269032
v 0.565387 0.160727 -0.234191
v 0.535850 0.000000 -0.221956
v 0.565387 -0.160727 -0.234191
v 0.649501 -0.296985 -0.269032
v 0.775387 -0.388029 -0.321176
v 0.923880 -0.420000 -0.382683
v 1.072372 -0.388029 -0.444191
v 1.198258 -0.296985 -0.496335
v 1.282372 -0.160727 -0.531176
v 1.392715 0.000000 -0.277028
v 1.361359 0.160727 -0.270791
v 1.272064 0.296985 -0.253029
v 1.138424 0.388029 -0.226447
v 0.980785 0.420000 -0.195090
v 0.823147 0.388029 -0.163734
v 0.689507 0.296985 -0.137151
v 0.600212 0.160727 -0.119390
v 0.568855 0.000000 -0.113152
v 0.600212 -0.160727 -0.119390
v 0.689507 -0.296985 -0.137151
v 0.823147 -0.388029 -0.163734
v 0.980785 -0.420000 -0.195090
v 1.138424 -0.388029 -0.226447
v 1.272064 -0.296985 -0.253029
v 1.361359 -0.160727 -0.270791
vn 1.000000 0.000000 0.000000
vn 0.923880 0.382683 0.000000
vn 0.707107 0.707107 0.000000
vn 0.382683 0.923880 0.000000
vn 0.000000 1.000000 0.000000
vn -0.382683 0.923880 -0.000000
vn -0.707107 0.707107 -0.000000
vn -0.923880 0.382683 -0.000000
vn -1.000000 0.000000 -0.000000
vn -0.923880 -0.382683 -0.000000
vn -0.707107 -0.707107 -0.000000
vn -0.382683 -0.923880 -0.000000
vn -0.000000 -1.000000 -0.000000
vn 0.382683 -0.923880 0.000000
vn 0.707107 -0.707107 0.000000
vn 0.923880 -0.382683 0.000000
vn 0.980785 0.000000 0.195090
vn 0.906127 0.382683 0.180240
vn 0.693520 0.707107 0.137950
vn 0.375330 0.923880 0.074658
vn 0.000000 1.000000 0.000000
vn -0.375330 0.923880 -0.074658
vn -0.693520 0.707107 -0.137950
vn -0.906127 0.382683 -0.180240
vn -0.980785 0.000000 -0.195090
vn -0.906127 -0.382683 -0.180240
vn -0.693520 -0.707107 -0.137950
vn -0.375330 -0.923880 -0.074658
vn -0.000000 -1.000000 -0.000000
vn 0.375330 -0.923880 0.074658
vn 0.693520 -0.707107 0.137950
vn 0.906127 -0.382683 0.180240
vn 0.923880 0.000000 0.382683
vn 0.853553 0.382683 0.353553
vn 0.653281 0.707107 0.270598
vn 0.353553 0.923880 0.146447
vn 0.000000 1.000000 0.000000
vn -0.353553 0.923880 -0.146447
vn -0.653281 0.707107 -0.270598
vn -0.853553 0.382683 -0.353553
vn -0.923880 0.000000 -0.382683
vn -0.853553 -0.382683 -0.353553
vn -0.653281 -0.707107 -0.270598
vn -0.353553 -0.923880 -0.146447
vn -0.000000 -1.000000 -0.000000
vn 0.353553 -0.923880 0.146447
vn 0.653281 -0.707107 0.270598
vn 0.853553 -0.382683 0.353553
vn 0.831470 0.000000 0.555570
vn 0.768178 0.382683 0.513280
vn 0.587938 0.707107 0.392847
vn 0.318190 0.923880 0.212608
vn 0.000000 1.000000 0.000000
vn -0.318190 0.923880 -0.212608
vn -0.587938 0.707107 -0.392847
vn -0.768178 0.382683 -0.513280
vn -0.831470 0.000000 -0.555570
vn -0.768178 -0.382683 -0.513280
vn -0.587938 -0.707107 -0.392847
vn -0.318190 -0.923880 -0.212608
vn -0.000000 -1.000000 -0.000000
vn 0.318190 -0.923880 0.212608
vn 0.587938 -0.707107 0.392847
vn 0.768178 -0.382683 0.513280
vn 0.707107 0.000000 0.707107
vn 0.653281 0.382683 0.653281
vn 0.500000 0.707107 0.500000
vn 0.270598 0.923880 0.270598
vn 0.000000 1.000000 0.000000
vn -0.270598 0.923880 -0.270598
vn -0.500000 0.707107 -0.500000
vn -0.653281 0.382683 -0.653281
vn -0.707107 0.000000 -0.707107
vn -0.653281 -0.382683 -0.653281
vn -0.500000 -0.707107 -0.500000
vn -0.270598 -0.923880 -0.270598
vn -0.000000 -1.000000 -0.000000
vn 0.270598 -0.923880 0.270598
vn 0.500000 -0.707107 0.500000
vn 0.653281 -0.382683 0.653281
vn 0.555570 0.000000 0.831470
vn 0.513280 0.382683 0.768178
vn 0.392847 0.707107 0.587938
vn 0.212608 0.923880 0.318190
vn 0.000000 1.000000 0.000000
vn -0.212608 0.923880 -0.318190
vn -0.392847 0.707107 -0.587938
vn -0.513280 0.382683 -0.768178
vn -0.555570 0.000000 -0.831470
vn -0.513280 -0.382683 -0.768178
vn -0.392847 -0.707107 -0.587938
vn -0.212608 -0.923880 -0.318190
vn -0.000000 -1.000000 -0.000000
vn 0.212608 -0.923880 0.318190
vn 0.392847 -0.707107 0.587938
vn 0.513280 -0.382683 0.768178
vn 0.382683 0.000000 0.923880
vn 0.353553 0.382683 0.853553
vn 0.270598 0.707107 0.653281
vn 0.146447 0.923880 0.353553
vn 0.000000 1.000000 0.000000
vn -0.146447 0.923880 -0.353553
vn -0.270598 0.707107 -0.653281
vn -0.353553 0.382683 -0.853553
vn -0.382683 0.000000 -0.923880
vn -0.353553 -0.382683 -0.853553
vn -0.270598 -0.707107 -0.653281
vn -0.146447 -0.923880 -0.353553
vn -0.000000 -1.000000 -0.000000
vn 0.146447 -0.923880 0.353553
vn 0.270598 -0.707107 0.653281
vn 0.353553 -0.382683 0.853553
vn 0.195090 0.000000 0.980785
vn 0.180240 0.382683 0.906127
vn 0.137950 0.707107 0.693520
vn 0.074658 0.923880 0.375330
vn 0.000000 1.000000 0.000000
vn -0.074658 0.923880 -0.375330
vn -0.137950 0.707107 -0.693520
vn -0.180240 0.382683 -0.906127
vn -0.195090 0.000000 -0.980785
vn -0.180240 -0.382683 -0.906127
vn -0.137950 -0.707107 -0.693520
vn -0.074658 -0.923880 -0.375330
vn -0.000000 -1.000000 -0.000000
vn 0.074658 -0.923880 0.375330
vn 0.137950 -0.707107 0.693520
vn 0.180240 -0.382683 0.906127
vn 0.000000 0.000000 1.000000
vn 0.000000 0.382683 0.923880
vn 0.000000 0.707107 0.707107
vn 0.000000 0.923880 0.382683
vn 0.000000 1.000000 0.000000
vn -0.000000 0.923880 -0.382683
vn -0.000000 0.707107 -0.707107
vn -0.000000 0.382683 -0.923880
vn -0.000000 0.000000 -1.000000
vn -0.000000 -0.382683 -0.923880
vn -0.000000 -0.707107 -0.707107
vn -0.000000 -0.923880 -0.382683
vn -0.000000 -1.000000 -0.000000
vn 0.000000 -0.923880 0.382683
vn 0.000000 -0.707107 0.707107
vn 0.000000 -0.382683 0.923880
vn -0.195090 0.000000 0.980785
vn -0.180240 0.382683 0.906127
vn -0.137950 0.707107 0.693520
vn -0.074658 0.923880 0.375330
vn -0.000000 1.000000 0.000000
vn 0.074658 0.923880 -0.375330
vn 0.137950 0.707107 -0.693520
vn 0.180240 0.382683 -0.906127
vn 0.195090 0.000000 -0.980785
vn 0.180240 -0.382683 -0.906127
vn 0.137950 -0.707107 -0.693520
vn 0.074658 -0.923880 -0.375330
vn 0.000000 -1.000000 -0.000000
vn -0.074658 -0.923880 0.375330
vn -0.137950 -0.707107 0.693520
vn -0.180240 -0.382683 0.906127
vn -0.382683 0.000000 0.923880
vn -0.353553 0.382683 0.853553
vn -0.270598 0.707107 0.653281
vn -0.146447 0.923880 0.353553
vn -0.000000 1.000000 0.000000
vn 0.146447 0.923880 -0.353553
vn 0.270598 0.707107 -0.653281
vn 0.353553 0.382683 -0.853553
vn 0.382683 0.000000 -0.923880
vn 0.353553 -0.382683 -0.853553
vn 0.270598 -0.707107 -0.653281
vn 0.146447 -0.923880 -0.353553
vn 0.000000 -1.000000 -0.000000
vn -0.146447 -0.923880 0.353553
vn -0.270598 -0.707107 0.653281
vn -0.353553 -0.382683 0.853553
vn -0.555570 0.000000 0.831470
vn -0.513280 0.382683 0.768178
vn -0.392847 0.707107 0.587938
vn -0.212608 0.923880 0.318190
vn -0.000000 1.000000 0.000000
vn 0.212608 0.923880 -0.318190
vn 0.392847 0.707107 -0.587938
vn 0.513280 0.382683 -0.768178
vn 0.555570 0.000000 -0.831470
vn 0.513280 -0.382683 -0.768178
vn 0.392847 -0.707107 -0.587938
vn 0.212608 -0.923880 -0.318190
vn 0.000000 -1.000000 -0.000000
vn -0.212608 -0.923880 0.318190
vn -0.392847 -0.707107 0.587938
vn -0.513280 -0.382683 0.768178
vn -0.707107 0.000000 0.707107
vn -0.653281 0.382683 0.653281
vn -0.500000 0.707107 0.500000
vn -0.270598 0.923880 0.270598
vn -0.000000 1.000000 0.000000
vn 0.270598 0.923880 -0.270598
vn 0.500000 0.707107 -0.500000
vn 0.653281 0.382683 -0.653281
vn 0.707107 0.000000 -0.707107
vn 0.653281 -0.382683 -0.653281
vn 0.500000 -0.707107 -0.500000
vn 0.270598 -0.923880 -0.270598
vn 0.000000 -1.000000 -0.000000
vn -0.270598 -0.923880 0.270598
vn -0.500000 -0.707107 0.500000
vn -0.653281 -0.382683 0.653281
vn -0.831470 0.000000 0.555570
vn -0.768178 0.382683 0.513280
vn -0.587938 0.707107 0.392847
vn -0.318190 0.923880 0.212608
vn -0.000000 1.000000 0.000000
vn 0.318190 0.923880 -0.212608
vn 0.587938 0.707107 -0.392847
vn 0.768178 0.382683 -0.513280
vn 0.831470 0.000000 -0.555570
vn 0.768178 -0.382683 -0.513280
vn 0.587938 -0.707107 -0.392847
vn 0.318190 -0.923880 -0.212608
vn 0.000000 -1.000000 -0.000000
vn -0.318190 -0.923880 0.212608
vn -0.587938 -0.707107 0.392847
vn -0.768178 -0.382683 0.513280
vn -0.923880 0.000000 0.382683
vn -0.853553 0.382683 0.353553
vn -0.653281 0.707107 0.270598
vn -0.353553 0.923880 0.146447
vn -0.000000 1.000000 0.000000
vn 0.353553 0.923880 -0.146447
vn 0.653281 0.707107 -0.270598
vn 0.853553 0.382683 -0.353553
vn 0.923880 0.000000 -0.382683
vn 0.853553 -0.382683 -0.353553
vn 0.653281 -0.707107 -0.270598
vn 0.353553 -0.923880 -0.146447
vn 0.000000 -1.000000 -0.000000
vn -0.353553 -0.923880 0.146447
vn -0.653281 -0.707107 0.270598
vn -0.853553 -0.382683 0.353553
vn -0.980785 0.000000 0.195090
vn -0.906127 0.382683 0.180240
vn -0.693520 0.707107 0.137950
vn -0.375330 0.923880 0.074658
vn -0.000000 1.000000 0.000000
vn 0.375330 0.923880 -0.074658
vn 0.693520 0.707107 -0.137950
vn 0.906127 0.382683 -0.180240
vn 0.980785 0.000000 -0.195090
vn 0.906127 -0.382683 -0.180240
vn 0.693520 -0.707107 -0.137950
vn 0.375330 -0.923880 -0.074658
vn 0.000000 -1.000000 -0.000000
vn -0.375330 -0.923880 0.074658
vn -0.693520 -0.707107 0.137950
vn -0.906127 -0.382683 0.180240
vn -1.000000 0.000000 0.000000
vn -0.923880 0.382683 0.000000
vn -0.707107 0.707107 0.000000
vn -0.382683 0.923880 0.000000
vn -0.000000 1.000000 0.000000
vn 0.382683 0.923880 -0.000000
vn 0.707107 0.707107 -0.000000
vn 0.923880 0.382683 -0.000000
vn 1.000000 0.000000 -0.000000
vn 0.923880 -0.382683 -0.000000
vn 0.707107 -0.707107 -0.000000
vn 0.382683 -0.923880 -0.000000
vn 0.000000 -1.000000 -0.000000
vn -0.382683 -0.923880 0.000000
vn -0.707107 -0.707107 0.000000
vn -0.923880 -0.382683 0.000000
vn -0.980785 0.000000 -0.195090
vn -0.906127 0.382683 -0.180240
vn -0.693520 0.707107 -0.137950
vn -0.375330 0.923880 -0.074658
vn -0.000000 1.000000 -0.000000
vn 0.375330 0.923880 0.074658
vn 0.693520 0.707107 0.137950
vn 0.906127 0.382683 0.180240
vn 0.980785 0.000000 0.195090
vn 0.906127 -0.382683 0.180240
vn 0.693520 -0.707107 0.137950
vn 0.375330 -0.923880 0.074658
vn 0.000000 -1.000000 0.000000
vn -0.375330 -0.923880 -0.074658
vn -0.693520 -0.707107 -0.137950
vn -0.906127 -0.382683 -0.180240
vn -0.923880 0.000000 -0.382683
vn -0.853553 0.382683 -0.353553
vn -0.653281 0.707107 -0.270598
vn -0.353553 0.923880 -0.146447
vn -0.000000 1.000000 -0.000000
vn 0.353553 0.923880 0.146447
vn 0.653281 0.707107 0.270598
vn 0.853553 0.382683 0.353553
vn 0.923880 0.000000 0.382683
vn 0.853553 -0.382683 0.353553
vn 0.653281 -0.707107 0.270598
vn 0.353553 -0.923880 0.146447
vn 0.000000 -1.000000 0.000000
vn -0.353553 -0.923880 -0.146447
vn -0.653281 -0.707107 -0.270598
vn -0.853553 -0.382683 -0.353553
vn -0.831470 0.000000 -0.555570
vn -0.768178 0.382683 -0.513280
vn -0.587938 0.707107 -0.392847
vn -0.318190 0.923880 -0.212608
vn -0.000000 1.000000 -0.000000
vn 0.318190 0.923880 0.212608
vn 0.587938 0.707107 0.392847
vn 0.768178 0.382683 0.513280
vn 0.831470 0.000000 0.555570
vn 0.768178 -0.382683 0.513280
vn 0.587938 -0.707107 0.392847
vn 0.318190 -0.923880 0.212608
vn 0.000000 -1.000000 0.000000
vn -0.318190 -0.923880 -0.212608
vn -0.587938 -0.707107 -0.392847
vn -0.768178 -0.382683 -0.513280
vn -0.707107 0.000000 -0.707107
vn -0.653281 0.382683 -0.653281
vn -0.500000 0.707107 -0.500000
vn -0.270598 0.923880 -0.270598
vn -0.000000 1.000000 -0.000000
vn 0.270598 0.923880 0.270598
vn 0.500000 0.707107 0.500000
vn 0.653281 0.382683 0.653281
vn 0.707107 0.000000 0.707107
vn 0.653281 -0.382683 0.653281
vn 0.500000 -0.707107 0.500000
vn 0.270598 -0.923880 0.270598
vn 0.000000 -1.000000 0.000000
vn -0.270598 -0.923880 -0.270598
vn -0.500000 -0.707107 -0.500000
vn -0.653281 -0.382683 -0.653281
vn -0.555570 0.000000 -0.831470
vn -0.513280 0.382683 -0.768178
vn -0.392847 0.707107 -0.587938
vn -0.212608 0.923880 -0.318190
vn -0.000000 1.000000 -0.000000
vn 0.212608 0.923880 0.318190
vn 0.392847 0.707107 0.587938
vn 0.513280 0.382683 0.768178
vn 0.555570 0.000000 0.831470
vn 0.513280 -0.382683 0.768178
vn 0.392847 -0.707107 0.587938
vn 0.212608 -0.923880 0.318190
vn 0.000000 -1.000000 0.000000
vn -0.212608 -0.923880 -0.318190
vn -0.392847 -0.707107 -0.587938
vn -0.513280 -0.382683 -0.768178
vn -0.382683 0.000000 -0.923880
vn -0.353553 0.382683 -0.853553
vn -0.270598 0.707107 -0.653281
vn -0.146447 0.923880 -0.353553
vn -0.000000 1.000000 -0.000000
vn 0.146447 0.923880 0.353553
vn 0.270598 0.707107 0.653281
vn 0.353553 0.382683 0.853553
vn 0.382683 0.000000 0.923880
vn 0.353553 -0.382683 0.853553
vn 0.270598 -0.707107 0.653281
vn 0.146447 -0.923880 0.353553
vn 0.000000 -1.000000 0.000000
vn -0.146447 -0.923880 -0.353553
vn -0.270598 -0.707107 -0.653281
vn -0.353553 -0.382683 -0.853553
vn -0.195090 0.000000 -0.980785
vn -0.180240 0.382683 -0.906127
vn -0.137950 0.707107 -0.693520
vn -0.074658 0.923880 -0.375330
vn -0.000000 1.000000 -0.000000
vn 0.074658 0.923880 0.375330
vn 0.137950 0.707107 0.693520
vn 0.180240 0.382683 0.906127
vn 0.195090 0.000000 0.980785
vn 0.180240 -0.382683 0.906127
vn 0.137950 -0.707107 0.693520
vn 0.074658 -0.923880 0.375330
vn 0.000000 -1.000000 0.000000
vn -0.074658 -0.923880 -0.375330
vn -0.137950 -0.707107 -0.693520
vn -0.180240 -0.382683 -0.906127
vn -0.000000 0.000000 -1.000000
vn -0.000000 0.382683 -0.923880
vn -0.000000 0.707107 -0.707107
vn -0.000000 0.923880 -0.382683
vn -0.000000 1.000000 -0.000000
vn 0.000000 0.923880 0.382683
vn 0.000000 0.707107 0.707107
vn 0.000000 0.382683 0.923880
vn 0.000000 0.000000 1.000000
vn 0.000000 -0.382683 0.923880
vn 0.000000 -0.707107 0.707107
vn 0.000000 -0.923880 0.382683
vn 0.000000 -1.000000 0.000000
vn -0.000000 -0.923880 -0.382683
vn -0.000000 -0.707107 -0.707107
vn -0.000000 -0.382683 -0.923880
vn 0.195090 0.000000 -0.980785
vn 0.180240 0.382683 -0.906127
vn 0.137950 0.707107 -0.693520
vn 0.074658 0.923880 -0.375330
vn 0.000000 1.000000 -0.000000
vn -0.074658 0.923880 0.375330
vn -0.137950 0.707107 0.693520
vn -0.180240 0.382683 0.906127
vn -0.195090 0.000000 0.980785
vn -0.180240 -0.382683 0.906127
vn -0.137950 -0.707107 0.693520
vn -0.074658 -0.923880 0.375330
vn -0.000000 -1.000000 0.000000
vn 0.074658 -0.923880 -0.375330
vn 0.137950 -0.707107 -0.693520
vn 0.180240 -0.382683 -0.906127
vn 0.382683 0.000000 -0.923880
vn 0.353553 0.382683 -0.853553
vn 0.270598 0.707107 -0.653281
vn 0.146447 0.923880 -0.353553
vn 0.000000 1.000000 -0.000000
vn -0.146447 0.923880 0.353553
vn -0.270598 0.707107 0.653281
vn -0.353553 0.382683 0.853553
vn -0.382683 0.000000 0.923880
vn -0.353553 -0.382683 0.853553
vn -0.270598 -0.707107 0.653281
vn -0.146447 -0.923880 0.353553
vn -0.000000 -1.000000 0.000000
vn 0.146447 -0.923880 -0.353553
vn 0.270598 -0.707107 -0.653281
vn 0.353553 -0.382683 -0.853553
vn 0.555570 0.000000 -0.831470
vn 0.513280 0.382683 -0.768178
vn 0.392847 0.707107 -0.587938
vn 0.212608 0.923880 -0.318190
vn 0.000000 1.000000 -0.000000
vn -0.212608 0.923880 0.318190
vn -0.392847 0.707107 0.587938
vn -0.513280 0.382683 0.768178
vn -0.555570 0.000000 0.831470
vn -0.513280 -0.382683 0.768178
vn -0.392847 -0.707107 0.587938
vn -0.212608 -0.923880 0.318190
vn -0.000000 -1.000000 0.000000
vn 0.212608 -0.923880 -0.318190
vn 0.392847 -0.707107 -0.587938
vn 0.513280 -0.382683 -0.768178
vn 0.707107 0.000000 -0.707107
vn 0.653281 0.382683 -0.653281
vn 0.500000 0.707107 -0.500000
vn 0.270598 0.923880 -0.270598
vn 0.000000 1.000000 -0.000000
vn -0.270598 0.923880 0.270598
vn -0.500000 0.707107 0.500000
vn -0.653281 0.382683 0.653281
vn -0.707107 0.000000 0.707107
vn -0.653281 -0.382683 0.653281
vn -0.500000 -0.707107 0.500000
vn -0.270598 -0.923880 0.270598
vn -0.000000 -1.000000 0.000000
vn 0.270598 -0.923880 -0.270598
vn 0.500000 -0.707107 -0.500000
vn 0.653281 -0.382683 -0.653281
vn 0.831470 0.000000 -0.555570
vn 0.768178 0.382683 -0.513280
vn 0.587938 0.707107 -0.392847
vn 0.318190 0.923880 -0.212608
vn 0.000000 1.000000 -0.000000
vn -0.318190 0.923880 0.212608
vn -0.587938 0.707107 0.392847
vn -0.768178 0.382683 0.513280
vn -0.831470 0.000000 0.555570
vn -0.768178 -0.382683 0.513280
vn -0.587938 -0.707107 0.392847
vn -0.318190 -0.923880 0.212608
vn -0.000000 -1.000000 0.000000
vn 0.318190 -0.923880 -0.212608
vn 0.587938 -0.707107 -0.392847
vn 0.768178 -0.382683 -0.513280
vn 0.923880 0.000000 -0.382683
vn 0.853553 0.382683 -0.353553
vn 0.653281 0.707107 -0.270598
vn 0.353553 0.923880 -0.146447
vn 0.000000 1.000000 -0.000000
vn -0.353553 0.923880 0.146447
vn -0.653281 0.707107 0.270598
vn -0.853553 0.382683 0.353553
vn -0.923880 0.000000 0.382683
vn -0.853553 -0.382683 0.353553
vn -0.653281 -0.707107 0.270598
vn -0.353553 -0.923880 0.146447
vn -0.000000 -1.000000 0.000000
vn 0.353553 -0.923880 -0.146447
vn 0.653281 -0.707107 -0.270598
vn 0.853553 -0.382683 -0.353553
vn 0.980785 0.000000 -0.195090
vn 0.906127 0.382683 -0.180240
vn 0.693520 0.707107 -0.137950
vn 0.375330 0.923880 -0.074658
vn 0.000000 1.000000 -0.000000
vn -0.375330 0.923880 0.074658
vn -0.693520 0.707107 0.137950
vn -0.906127 0.382683 0.180240
vn -0.980785 0.000000 0.195090
vn -0.906127 -0.382683 0.180240
vn -0.693520 -0.707107 0.137950
vn -0.375330 -0.923880 0.074658
vn -0.000000 -1.000000 0.000000
vn 0.375330 -0.923880 -0.074658
vn 0.693520 -0.707107 -0.137950
vn 0.906127 -0.382683 -0.180240
f 1//1 2//2 18//18 17//17
f 2//2 3//3 19//19 18//18
f 3//3 4//4 20//20 19//19
f 4//4 5//5 21//21 20//20
f 5//5 6//6 22//22 21//21
f 6//6 7//7 23//23 22//22
f 7//7 8//8 24//24 23//23
f 8//8 9//9 25//25 24//24
f 9//9 10//10 26//26 25//25
f 10//10 11//11 27//27 26//26
f 11//11 12//12 28//28 27//27
f 12//12 13//13 29//29 28//28
f 13//13 14//14 30//30 29//29
f 14//14 15//15 31//31 30//30
f 15//15 16//16 32//32 31//31
f 16//16 1//1 17//17 32//32
f 17//17 18//18 34//34 33//33
f 18//18 19//19 35//35 34//34
f 19//19 20//20 36//36 35//35
f 20//20 21//21 37//37 36//36
f 21//21 22//22 38//38 37//37
f 22//22 23//23 39//39 38//38
f 23//23 24//24 40//40 39//39
f 24//24 25//25 41//41 40//40
f 25//25 26//26 42//42 41//41
f 26//26 27//27 43//43 42//42
f 27//27 28//28 44//44 43//43
f 28//28 29//29 45//45 44//44
f 29//29 30//30 46//46 45//45
f 30//30 31//31 47//47 46//46
f 31//31 32//32 48//48 47//47
f 32//32 17//17 33//33 48//48
f 33//33 34//34 50//50 49//49
f 34//34 35//35 51//51 50//50
f 35//35 36//36 52//52 51//51
f 36//36 37//37 53//53 52//52
f 37//37 38//38 54//54 53//53
f 38//38 39//39 55//55 54//54
f 39//39 40//40 56//56 55//55
f 40//40 41//41 57//57 56//56
f 41//41 42//42 58//58 57//57
f 42//42 43//43 59//59 58//58
f 43//43 44//44 60//60 59//59
f 44//44 45//45 61//61 60//60
f 45//45 46//46 62//62 61//61
f 46//46 47//47 63//63 62//62
f 47//47 48//48 64//64 63//63
f 48//48 33//33 49//49 64//64
f 49//49 50//50 66//66 65//65
f 50//50 51//51 67//67 66//66
f 51//51 52//52 68//68 67//67
f 52//52 53//53 69//69 68//68
f 53//53 54//54 70//70 69//69
f 54//54 55//55 71//71 70//70
f 55//55 56//56 72//72 71//71
f 56//56 57//57 73//73 72//72
f 57//57 58//58 74//74 73//73
f 58//58 59//59 75//75 74//74
f 59//59 60//60 76//76 75//75
f 60//60 61//61 77//77 76//76
f 61//61 62//62 78//78 77//77
f 62//62 63//63 79//79 78//78
f 63//63 64//64 80//80 79//79
f 64//64 49//49 65//65 80//80
f 65//65 66//66 82//82 81//81
f 66//66 67//67 83//83 82//82
f 67//67 68//68 84//84 83//83
f 68//68 69//69 85//85 84//84
f 69//69 70//70 86//86 85//85
f 70//70 71//71 87//87 86//86
f 71//71 72//72 88//88 87//87
f 72//72 73//73 89//89 88//88
f 73//73 74//74 90//90 89//89
f 74//74 75//75 91//91 90//90
f 75//75 76//76 92//92 91//91
f 76//76 77//77 93//93 92//92
f 77//77 78//78 94//94 93//93
f 78//78 79//79 95//95 94//94
f 79//79 80//80 96//96 95//95
f 80//80 65//65 81//81 96//96
f 81//81 82//82 98//98 97//97
f 82//82 83//83 99//99 98//98
f 83//83 84//84 100//100 99//99
f 84//84 85//85 101//101 100//100
f 85//85 86//86 102//102 101//101
f 86//86 87//87 103//103 102//102
f 87//87 88//88 104//104 103//103
f 88//88 89//89 105//105 104//104
f 89//89 90//90 106//106 105//105
f 90//90 91//91 107//107 106//106
f 91//91 92//92 108//108 107//107
f 92//92 93//93 109//109 108//108
f 93//93 94//94 110//110 109//109
f 94//94 95//95 111//111 110//110
f 95//95 96//96 112//112 111//111
f 96//96 81//81 97//97 112//112
f 97//97 98//98 114//114 113//113
f 98//98 99//99 115//115 114//114
f 99//99 100//100 116//116 115//115
f 100//100 101//101 117//117 116//116
f 101//101 102//102 118//118 117//117
f 102//102 103//103 119//119 118//118
f 103//103 104//104 120//120 119//119
f 104//104 105//105 121//121 120//120
f 105//105 106//106 122//122 121//121
f 106//106 107//107 123//123 122//122
f 107//107 108//108 124//124 123//123
f 108//108 109//109 125//125 124//124
f 109//109 110//110 126//126 125//125
f 110//110 111//111 127//127 126//126
f 111//111 112//112 128//128 127//127
f 112//112 97//97 113//113 128//128
f 113//113 114//114 130//130 129//129
f 114//114 115//115 131//131 130//130
f 115//115 116//116 132//132 131//131
f 116//116 117//117 133//133 132//132
f 117//117 118//118 134//134 133//133
f 118//118 119//119 135//135 134//134
f 119//119 120//120 136//136 135//135
f 120//120 121//121 137//137 136//136
f 121//121 122//122 138//138 137//137
f 122//122 123//123 139//139 138//138
f 123//123 124//124 140//140 139//139
f 124//124 125//125 141//141 140//140
f 125//125 126//126 142//142 141//141
f 126//126 127//127 143//143 142//142
f 127//127 128//128 144//144 143//143
f 128//128 113//113 129//129 144//144
f 129//129 130//130 146//146 145//145
f 130//130 131//131 147//147 146//146
f 131//131 132//132 148//148 147//147
f 132//132 133//133 149//149 148//148
f 133//133 134//134 150//150 149//149
f 134//134 135//135 151//151 150//150
f 135//135 136//136 152//152 151//151
f 136//136 137//137 153//153 152//152
f 137//137 138//138 154//154 153//153
f 138//138 139//139 155//155 154//154
f 139//139 140//140 156//156 155//155
f 140//140 141//141 157//157 156//156
f 141//141 142//142 158//158 157//157
f 142//142 143//143 159//159 158//158
f 143//143 144//144 160//160 159//159
f 144//144 129//129 145//145 160//160
f 145//145 146//146 162//162 161//161
f 146//146 147//147 163//163 162//162
f 147//147 148//148 164//164 163//163
f 148//148 149//149 165//165 164//164
f 149//149 150//150 166//166 165//165
f 150//150 151//151 167//167 166//166
f 151//151 152//152 168//168 167//167
f 152//152 153//153 169//169 168//168
f 153//153 154//154 170//170 169//169
f 154//154 155//155 171//171 170//170
f 155//155 156//156 172//172 171//171
f 156//156 157//157 173//173 172//172
f 157//157 158//158 174//174 173//173
f 158//158 159//159 175//175 174//174
f 159//159 160//160 176//176 175//175
f 160//160 145//145 161//161 176//176
f 161//161 162//162 178//178 177//177
f 162//162 163//163 179//179 178//178
f 163//163 164//164 180//180 179//179
f 164//164 165//165 181//181 180//180
f 165//165 166//166 182//182 181//181
f 166//166 167//167 183//183 182//182
f 167//167 168//168 184//184 183//183
f 168//168 169//169 185//185 184//184
f 169//169 170//170 186//186 185//185
f 170//170 171//171 187//187 186//186
f 171//171 172//172 188//188 187//187
f 172//172 173//173 189//189 188//188
f 173//173 174//174 190//190 189//189
f 174//174 175//175 191//191 190//190
f 175//175 176//176 192//192 191//191
f 176//176 161//161 177//177 192//192
f 177//177 178//178 194//194 193//193
f 178//178 179//179 195//195 194//194
f 179//179 180//180 196//196 195//195
f 180//180 181//181 197//197 196//196
f 181//181 182//182 198//198 197//197
f 182//182 183//183 199//199 198//198
f 183//183 184//184 200//200 199//199
f 184//184 185//185 201//201 200//200
f 185//185 186//186 202//202 201//201
f 186//186 187//187 203//203 202//202
f 187//187 188//188 204//204 203//203
f 188//188 189//189 205//205 204//204
f 189//189 190//190 206//206 205//205
f 190//190 191//191 207//207 206//206
f 191//191 192//192 208//208 207//207
f 192//192 177//177 193//193 208//208
f 193//193 194//194 210//210 209//209
f 194//194 195//195 211//211 210//210
f 195//195 196//196 212//212 211//211
f 196//196 197//197 213//213 212//212
f 197//197 198//198 214//214 213//213
f 198//198 199//199 215//215 214//214
f 199//199 200//200 216//216 215//215
f 200//200 201//201 217//217 216//216
f 201//201 202//202 218//218 217//217
f 202//202 203//203 219//219 218//218
f 203//203 204//204 220//220 219//219
f 204//204 205//205 221//221 220//220
f 205//205 206//206 222//222 221//221
f 206//206 207//207 223//223 222//222
f 207//207 208//208 224//224 223//223
f 208//208 193//193 209//209 224//224
f 209//209 210//210 226//226 225//225
f 210//210 211//211 227//227 226//226
f 211//211 212//212 228//228 227//227
f 212//212 213//213 229//229 228//228
f 213//213 214//214 230//230 229//229
f 214//214 215//215 231//231 230//230
f 215//215 216//216 232//232 231//231
f 216//216 217//217 233//233 232//232
f 217//217 218//218 234//234 233//233
f 218//218 219//219 235//235 234//234
f 219//219 220//220 236//236 235//235
f 220//220 221//221 237//237 236//236
f 221//221 222//222 238//238 237//237
f 222//222 223//223 239//239 238//238
f 223//223 224//224 240//240 239//239
f 224//224 209//209 225//225 240//240
f 225//225 226//226 242//242 241//241
f 226//226 227//227 243//243 242//242
f 227//227 228//228 244//244 243//243
f 228//228 229//229 245//245 244//244
f 229//229 230//230 246//246 245//245
f 230//230 231//231 247//247 246//246
f 231//231 232//232 248//248 247//247
f 232//232 233//233 249//249 248//248
f 233//233 234//234 250//250 249//249
f 234//234 235//235 251//251 250//250
f 235//235 236//236 252//252 251//251
f 236//236 237//237 253//253 252//252
f 237//237 238//238 254//254 253//253
f 238//238 239//239 255//255 254//254
f 239//239 240//240 256//256 255//255
f 240//240 225//225 241//241 256//256
f 241//241 242//242 258//258 257//257
f 242//242 243//243 259//259 258//258
f 243//243 244//244 260//260 259//259
f 244//244 245//245 261//261 260//260
f 245//245 246//246 262//262 261//261
f 246//246 247//247 263//263 262//262
f 247//247 248//248 264//264 263//263
f 248//248 249//249 265//265 264//264
f 249//249 250//250 266//266 265//265
f 250//250 251//251 267//267 266//266
f 251//251 252//252 268//268 267//267
f 252//252 253//253 269//269 268//268
f 253//253 254//254 270//270 269//269
f 254//254 255//255 271//271 270//270
f 255//255 256//256 272//272 271//271
f 256//256 241//241 257//257 272//272
f 257//257 258//258 274//274 273//273
f 258//258 259//259 275//275 274//274
f 259//259 260//260 276//276 275//275
f 260//260 261//261 277//277 276//276
f 261//261 262//262 278//278 277//277
f 262//262 263//263 279//279 278//278
f 263//263 264//264 280//280 279//279
f 264//264 265//265 281//281 280//280
f 265//265 266//266 282//282 281//281
f 266//266 267//267 283//283 282//282
f 267//267 268//268 284//284 283//283
f 268//268 269//269 285//285 284//284
f 269//269 270//270 286//286 285//285
f 270//270 271//271 287//287 286//286
f 271//271 272//272 288//288 287//287
f 272//272 257//257 273//273 288//288
f 273//273 274//274 290//290 289//289
f 274//274 275//275 291//291 290//290
f 275//275 276//276 292//292 291//291
f 276//276 277//277 293//293 292//292
f 277//277 278//278 294//294 293//293
f 278//278 279//279 295//295 294//294
f 279//279 280//280 296//296 295//295
f 280//280 281//281 297//297 296//296
f 281//281 282//282 298//298 297//297
f 282//282 283//283 299//299 298//298
f 283//283 284//284 300//300 299//299
f 284//284 285//285 301//301 300//300
f 285//285 286//286 302//302 301//301
f 286//286 287//287 303//303 302//302
f 287//287 288//288 304//304 303//303
f 288//288 273//273 289//289 304//304
f 289//289 290//290 306//306 305//305
f 290//290 291//291 307//307 306//306
f 291//291 292//292 308//308 307//307
f 292//292 293//293 309//309 308//308
f 293//293 294//294 310//310 309//309
f 294//294 295//295 311//311 310//310
f 295//295 296//296 312//312 311//311
f 296//296 297//297 313//313 312//312
f 297//297 298//298 314//314 313//313
f 298//298 299//299 315//315 314//314
f 299//299 300//300 316//316 315//315
f 300//300 301//301 317//317 316//316
f 301//301 302//302 318//318 317//317
f 302//302 303//303 319//319 318//318
f 303//303 304//304 320//320 319//319
f 304//304 289//289 305//305 320//320
f 305//305 306//306 322//322 321//321
f 306//306 307//307 323//323 322//322
f 307//307 308//308 324//324 323//323
f 308//308 309//309 325//325 324//324
f 309//309 310//310 326//326 325//325
f 310//310 311//311 327//327 326//326
f 311//311 312//312 328//328 327//327
f 312//312 313//313 329//329 328//328
f 313//313 314//314 330//330 329//329
f 314//314 315//315 331//331 330//330
f 315//315 316//316 332//332 331//331
f 316//316 317//317 333//333 332//332
f 317//317 318//318 334//334 333//333
f 318//318 319//319 335//335 334//334
f 319//319 320//320 336//336 335//335
f 320//320 305//305 321//321 336//336
f 321//321 322//322 338//338 337//337
f 322//322 323//323 339//339 338//338
f 323//323 324//324 340//340 339//339
f 324//324 325//325 341//341 340//340
f 325//325 326//326 342//342 341//341
f 326//326 327//327 343//343 342//342
f 327//327 328//328 344//344 343//343
f 328//328 329//329 345//345 344//344
f 329//329 330//330 346//346 345//345
f 330//330 331//331 347//347 346//346
f 331//331 332//332 348//348 347//347
f 332//332 333//333 349//349 348//348
f 333//333 334//334 350//350 349//349
f 334//334 335//335 351//351 350//350
f 335//335 336//336 352//352 351//351
f 336//336 321//321 337//337 352//352
f 337//337 338//338 354//354 353//353
f 338//338 339//339 355//355 354//354
f 339//339 340//340 356//356 355//355
f 340//340 341//341 357//357 356//356
f 341//341 342//342 358//358 357//357
f 342//342 343//343 359//359 358//358
f 343//343 344//344 360//360 359//359
f 344//344 345//345 361//361 360//360
f 345//345 346//346 362//362 361//361
f 346//346 347//347 363//363 362//362
f 347//347 348//348 364//364 363//363
f 348//348 349//349 365//365 364//364
f 349//349 350//350 366//366 365//365
f 350//350 351//351 367//367 366//366
f 351//351 352//352 368//368 367//367
f 352//352 337//337 353//353 368//368
f 353//353 354//354 370//370 369//369
f 354//354 355//355 371//371 370//370
f 355//355 356//356 372//372 371//371
f 356//356 357//357 373//373 372//372
f 357//357 358//358 374//374 373//373
f 358//358 359//359 375//375 374//374
f 359//359 360//360 376//376 375//375
f 360//360 361//361 377//377 376//376
f 361//361 362//362 378//378 377//377
f 362//362 363//363 379//379 378//378
f 363//363 364//364 380//380 379//379
f 364//364 365//365 381//381 380//380
f 365//365 366//366 382//382 381//381
f 366//366 367//367 383//383 382//382
f 367//367 368//368 384//384 383//383
f 368//368 353//353 369//369 384//384
f 369//369 370//370 386//386 385//385
f 370//370 371//371 387//387 386//386
f 371//371 372//372 388//388 387//387
f 372//372 373//373 389//389 388//388
f 373//373 374//374 390//390 389//389
f 374//374 375//375 391//391 390//390
f 375//375 376//376 392//392 391//391
f 376//376 377//377 393//393 392//392
f 377//377 378//378 394//394 393//393
f 378//378 379//379 395//395 394//394
f 379//379 380//380 396//396 395//395
f 380//380 381//381 397//397 396//396
f 381//381 382//382 398//398 397//397
f 382//382 383//383 399//399 398//398
f 383//383 384//384 400//400 399//399
f 384//384 369//369 385//385 400//400
f 385//385 386//386 402//402 401//401
f 386//386 387//387 403//403 402//402
f 387//387 388//388 404//404 403//403
f 388//388 389//389 405//405 404//404
f 389//389 390//390 406//406 405//405
f 390//390 391//391 407//407 406//406
f 391//391 392//392 408//408 407//407
f 392//392 393//393 409//409 408//408
f 393//393 394//394 410//410 409//409
f 394//394 395//395 411//411 410//410
f 395//395 396//396 412//412 411//411
f 396//396 397//397 413//413 412//412
f 397//397 398//398 414//414 413//413
f 398//398 399//399 415//415 414//414
f 399//399 400//400 416//416 415//415
f 400//400 385//385 401//401 416//416
f 401//401 402//402 418//418 417//417
f 402//402 403//403 419//419 418//418
f 403//403 404//404 420//420 419//419
f 404//404 405//405 421//421 420//420
f 405//405 406//406 422//422 421//421
f 406//406 407//407 423//423 422//422
f 407//407 408//408 424//424 423//423
f 408//408 409//409 425//425 424//424
f 409//409 410//410 426//426 425//425
f 410//410 411//411 427//427 426//426
f 411//411 412//412 428//428 427//427
f 412//412 413//413 429//429 428//428
f 413//413 414//414 430//430 429//429
f 414//414 415//415 431//431 430//430
f 415//415 416//416 432//432 431//431
f 416//416 401//401 417//417 432//432
f 417//417 418//418 434//434 433//433
f 418//418 419//419 435//435 434//434
f 419//419 420//420 436//436 435//435
f 420//420 421//421 437//437 436//436
f 421//421 422//422 438//438 437//437
f 422//422 423//423 439//439 438//438
f 423//423 424//424 440//440 439//439
f 424//424 425//425 441//441 440//440
f 425//425 426//426 442//442 441//441
f 426//426 427//427 443//443 442//442
f 427//427 428//428 444//444 443//443
f 428//428 429//429 445//445 444//444
f 429//429 430//430 446//446 445//445
f 430//430 431//431 447//447 446//446
f 431//431 432//432 448//448 447//447
f 432//432 417//417 433//433 448//448
f 433//433 434//434 450//450 449//449
f 434//434 435//435 451//451 450//450
f 435//435 436//436 452//452 451//451
f 436//436 437//437 453//453 452//452
f 437//437 438//438 454//454 453//453
f 438//438 439//439 455//455 454//454
f 439//439 440//440 456//456 455//455
f 440//440 441//441 457//457 456//456
f 441//441 442//442 458//458 457//457
f 442//442 443//443 459//459 458//458
f 443//443 444//444 460//460 459//459
f 444//444 445//445 461//461 460//460
f 445//445 446//446 462//462 461//461
f 446//446 447//447 463//463 462//462
f 447//447 448//448 464//464 463//463
f 448//448 433//433 449//449 464//464
f 449//449 450//450 466//466 465//465
f 450//450 451//451 467//467 466//466
f 451//451 452//452 468//468 467//467
f 452//452 453//453 469//469 468//468
f 453//453 454//454 470//470 469//469
f 454//454 455//455 471//471 470//470
f 455//455 456//456 472//472 471//471
f 456//456 457//457 473//473 472//472
f 457//457 458//458 474//474 473//473
f 458//458 459//459 475//475 474//474
f 459//459 460//460 476//476 475//475
f 460//460 461//461 477//477 476//476
f 461//461 462//462 478//478 477//477
f 462//462 463//463 479//479 478//478
f 463//463 464//464 480//480 479//479
f 464//464 449//449 465//465 480//480
f 465//465 466//466 482//482 481//481
f 466//466 467//467 483//483 482//482
f 467//467 468//468 484//484 483//483
f 468//468 469//469 485//485 484//484
f 469//469 470//470 486//486 485//485
f 470//470 471//471 487//487 486//486
f 471//471 472//472 488//488 487//487
f 472//472 473//473 489//489 488//488
f 473//473 474//474 490//490 489//489
f 474//474 475//475 491//491 490//490
f 475//475 476//476 492//492 491//491
f 476//476 477//477 493//493 492//492
f 477//477 478//478 494//494 493//493
f 478//478 479//479 495//495 494//494
f 479//479 480//480 496//496 495//495
f 480//480 465//465 481//481 496//496
f 481//481 482//482 498//498 497//497
f 482//482 483//483 499//499 498//498
f 483//483 484//484 500//500 499//499
f 484//484 485//485 501//501 500//500
f 485//485 486//486 502//502 501//501
f 486//486 487//487 503//503 502//502
f 487//487 488//488 504//504 503//503
f 488//488 489//489 505//505 504//504
f 489//489 490//490 506//506 505//505
f 490//490 491//491 507//507 506//506
f 491//491 492//492 508//508 507//507
f 492//492 493//493 509//509 508//508
f 493//493 494//494 510//510 509//509
f 494//494 495//495 511//511 510//510
f 495//495 496//496 512//512 511//511
f 496//496 481//481 497//497 512//512
f 497//497 498//498 2//2 1//1
f 498//498 499//499 3//3 2//2
f 499//499 500//500 4//4 3//3
f 500//500 501//501 5//5 4//4
f 501//501 502//502 6//6 5//5
f 502//502 503//503 7//7 6//6
f 503//503 504//504 8//8 7//7
f 504//504 505//505 9//9 8//8
f 505//505 506//506 10//10 9//9
f 506//506 507//507 11//11 10//10
f 507//507 508//508 12//12 11//11
f 508//508 509//509 13//13 12//12
f 509//509 510//510 14//14 13//13
f 510//510 511//511 15//15 14//14
f 511//511 512//512 16//16 15//15
f 512//512 497//497 1//1 16//16
